<?xml version="1.0" standalone="no"?>
<!DOCTYPE svg PUBLIC "-//W3C//DTD SVG 20010904//EN"
 "http://www.w3.org/TR/2001/REC-SVG-20010904/DTD/svg10.dtd">
<svg version="1.0" xmlns="http://www.w3.org/2000/svg"
 width="275.000000pt" height="275.000000pt" viewBox="0 0 275.000000 275.000000"
 preserveAspectRatio="xMidYMid meet">

<g transform="translate(0.000000,275.000000) scale(0.100000,-0.100000)"
fill="#000000" stroke="none">
<path d="M1255 2476 c-206 -51 -371 -229 -421 -454 -24 -110 -15 -263 21 -362
81 -220 242 -358 455 -391 273 -42 553 170 615 466 69 331 -118 661 -421 740
-69 18 -179 18 -249 1z"/>
<path d="M1820 1254 c-266 -212 -623 -211 -889 4 l-44 36 -55 -30 c-68 -36
-190 -148 -231 -212 -73 -115 -93 -272 -49 -389 111 -298 497 -485 936 -451
293 22 564 162 684 354 93 148 92 338 -3 486 -42 65 -164 176 -235 214 l-59
32 -55 -44z"/>
</g>
</svg>
